<svg version="1.1" xmlns="http://www.w3.org/2000/svg" xmlns:xlink="http://www.w3.org/1999/xlink" width="1190" height="1313"><defs/><g><g transform="translate(-422,-46) scale(1,1)"><rect fill="#C0C0C0" stroke="none" x="439" y="543" width="285" height="115" opacity="0.2"/></g><g transform="translate(-422,-46) scale(1,1)"><rect fill="#ffffff" stroke="none" x="432" y="536" width="285" height="115"/></g><g transform="translate(-422,-46) scale(1,1)"><path fill="none" stroke="#000000" d="M 432 536 L 717 536 L 717 651 L 432 651 L 432 536 Z Z" stroke-miterlimit="10"/></g><g transform="translate(-422,-46) scale(1,1)"><path fill="none" stroke="#000000" d="M 432 561 L 717 561" stroke-miterlimit="10"/></g><g transform="translate(-422,-46) scale(1,1)"><path fill="none" stroke="#000000" d="M 432 584 L 717 584" stroke-miterlimit="10"/></g><g transform="translate(-422,-46) scale(1,1)"><g><path fill="none" stroke="none"/><text fill="#000000" stroke="none" font-family="Arial" font-size="13px" font-style="normal" font-weight="bold" text-decoration="none" x="504" y="555.5">GameshowModeActivity</text></g></g><g transform="translate(-422,-46) scale(1,1)"><g><path fill="none" stroke="none"/><text fill="#000000" stroke="none" font-family="Arial" font-size="13px" font-style="normal" font-weight="normal" text-decoration="none" x="437" y="578.5">-numberOfPlayers: integer</text></g></g><g transform="translate(-422,-46) scale(1,1)"><g><path fill="none" stroke="none"/><text fill="#000000" stroke="none" font-family="Arial" font-size="13px" font-style="normal" font-weight="normal" text-decoration="none" x="437" y="601.5">#onCreate(savedInstanceState: Bundle): void</text></g></g><g transform="translate(-422,-46) scale(1,1)"><g><path fill="none" stroke="none"/><text fill="#000000" stroke="none" font-family="Arial" font-size="13px" font-style="normal" font-weight="normal" text-decoration="none" x="437" y="616.5">+onCreateOptionsMenu(menu: Menu): boolean</text></g></g><g transform="translate(-422,-46) scale(1,1)"><g><path fill="none" stroke="none"/><text fill="#000000" stroke="none" font-family="Arial" font-size="13px" font-style="normal" font-weight="normal" text-decoration="none" x="437" y="631.5">+onPlayerButtonClick(view: View): void</text></g></g><g transform="translate(-422,-46) scale(1,1)"><g><path fill="none" stroke="none"/><text fill="#000000" stroke="none" font-family="Arial" font-size="13px" font-style="normal" font-weight="normal" text-decoration="none" x="437" y="646.5">+onStatisticsMenuClick(menu: MenuItem): void</text></g></g><g transform="translate(-422,-46) scale(1,1)"><rect fill="#C0C0C0" stroke="none" x="559" y="1015" width="423" height="130" opacity="0.2"/></g><g transform="translate(-422,-46) scale(1,1)"><rect fill="#ffffff" stroke="none" x="552" y="1008" width="423" height="130"/></g><g transform="translate(-422,-46) scale(1,1)"><path fill="none" stroke="#000000" d="M 552 1008 L 975 1008 L 975 1138 L 552 1138 L 552 1008 Z Z" stroke-miterlimit="10"/></g><g transform="translate(-422,-46) scale(1,1)"><path fill="none" stroke="#000000" d="M 552 1033 L 975 1033" stroke-miterlimit="10"/></g><g transform="translate(-422,-46) scale(1,1)"><path fill="none" stroke="#000000" d="M 552 1071 L 975 1071" stroke-miterlimit="10"/></g><g transform="translate(-422,-46) scale(1,1)"><g><path fill="none" stroke="none"/><text fill="#000000" stroke="none" font-family="Arial" font-size="13px" font-style="normal" font-weight="bold" text-decoration="none" x="707" y="1027.5">GameshowStatistic</text></g></g><g transform="translate(-422,-46) scale(1,1)"><g><path fill="none" stroke="none"/><text fill="#000000" stroke="none" font-family="Arial" font-size="13px" font-style="normal" font-weight="normal" text-decoration="none" x="557" y="1050.5">-winningPlayer: Integer</text></g></g><g transform="translate(-422,-46) scale(1,1)"><g><path fill="none" stroke="none"/><text fill="#000000" stroke="none" font-family="Arial" font-size="13px" font-style="normal" font-weight="normal" text-decoration="none" x="557" y="1065.5">-numberOfPlayers: Integer</text></g></g><g transform="translate(-422,-46) scale(1,1)"><g><path fill="none" stroke="none"/><text fill="#000000" stroke="none" font-family="Arial" font-size="13px" font-style="normal" font-weight="normal" text-decoration="none" x="557" y="1088.5">+GameshowStatisitc(numberOfPlayers: Integer, winningPlayer: Integer)</text></g></g><g transform="translate(-422,-46) scale(1,1)"><g><path fill="none" stroke="none"/><text fill="#000000" stroke="none" font-family="Arial" font-size="13px" font-style="normal" font-weight="normal" text-decoration="none" x="557" y="1103.5">+getNumberOfPlayers(): Integer</text></g></g><g transform="translate(-422,-46) scale(1,1)"><g><path fill="none" stroke="none"/><text fill="#000000" stroke="none" font-family="Arial" font-size="13px" font-style="normal" font-weight="normal" text-decoration="none" x="557" y="1118.5">+getWinningPlayer(): Integer</text></g></g><g transform="translate(-422,-46) scale(1,1)"><g><path fill="none" stroke="none"/><text fill="#000000" stroke="none" font-family="Arial" font-size="13px" font-style="normal" font-weight="normal" text-decoration="none" x="557" y="1133.5">+toString(): String</text></g></g><g transform="translate(-422,-46) scale(1,1)"><rect fill="#C0C0C0" stroke="none" x="823" y="545" width="360" height="130" opacity="0.2"/></g><g transform="translate(-422,-46) scale(1,1)"><rect fill="#C0C0C0" stroke="none" x="1106" y="527" width="86" height="22" opacity="0.2"/></g><g transform="translate(-422,-46) scale(1,1)"><rect fill="#ffffff" stroke="none" x="816" y="538" width="360" height="130"/></g><g transform="translate(-422,-46) scale(1,1)"><path fill="none" stroke="#000000" d="M 816 538 L 1176 538 L 1176 668 L 816 668 L 816 538 Z Z" stroke-miterlimit="10"/></g><g transform="translate(-422,-46) scale(1,1)"><path fill="none" stroke="#000000" d="M 816 576 L 1176 576" stroke-miterlimit="10"/></g><g transform="translate(-422,-46) scale(1,1)"><path fill="none" stroke="#000000" d="M 816 586 L 1176 586" stroke-miterlimit="10"/></g><g transform="translate(-422,-46) scale(1,1)"><g><path fill="none" stroke="none"/><text fill="#000000" stroke="none" font-family="Arial" font-size="13px" font-style="normal" font-weight="normal" text-decoration="none" x="964" y="555.5">«interface»</text></g></g><g transform="translate(-422,-46) scale(1,1)"><g><path fill="none" stroke="none"/><text fill="#000000" stroke="none" font-family="Arial" font-size="13px" font-style="normal" font-weight="bold" text-decoration="none" x="943.5" y="570.5">StatisticsManager</text></g></g><g transform="translate(-422,-46) scale(1,1)"><g><path fill="none" stroke="none"/><text fill="#000000" stroke="none" font-family="Arial" font-size="13px" font-style="normal" font-weight="normal" text-decoration="none" x="821" y="603.5">+saveStatistics(): void</text></g></g><g transform="translate(-422,-46) scale(1,1)"><g><path fill="none" stroke="none"/><text fill="#000000" stroke="none" font-family="Arial" font-size="13px" font-style="normal" font-weight="normal" text-decoration="none" x="821" y="618.5">+loadStatisitcs(): void</text></g></g><g transform="translate(-422,-46) scale(1,1)"><g><path fill="none" stroke="none"/><text fill="#000000" stroke="none" font-family="Arial" font-size="13px" font-style="normal" font-weight="normal" text-decoration="none" x="821" y="633.5">+clearStatisitcs(): void</text></g></g><g transform="translate(-422,-46) scale(1,1)"><g><path fill="none" stroke="none"/><text fill="#000000" stroke="none" font-family="Arial" font-size="13px" font-style="normal" font-weight="normal" text-decoration="none" x="821" y="648.5">+addStatistic(statisitic: StatisticType)</text></g></g><g transform="translate(-422,-46) scale(1,1)"><g><path fill="none" stroke="none"/><text fill="#000000" stroke="none" font-family="Arial" font-size="13px" font-style="normal" font-weight="normal" text-decoration="none" x="821" y="663.5">+getPrintedStatistics(number: Integer): ArrayList&lt;String&gt;</text></g></g><g transform="translate(-422,-46) scale(1,1)"><rect fill="#ffffff" stroke="none" x="1099" y="520" width="86" height="22"/></g><g transform="translate(-422,-46) scale(1,1)"><path fill="none" stroke="#000000" d="M 1099 520 L 1185 520 L 1185 542 L 1099 542 L 1099 520 Z Z" stroke-miterlimit="10" stroke-dasharray="3"/></g><g transform="translate(-422,-46) scale(1,1)"><g><path fill="none" stroke="none"/><text fill="#000000" stroke="none" font-family="Arial" font-size="13px" font-style="normal" font-weight="normal" text-decoration="none" x="1104" y="537.5">StatisticType</text></g></g><g transform="translate(-422,-46) scale(1,1)"><rect fill="#C0C0C0" stroke="none" x="519" y="367" width="288" height="87" opacity="0.2"/></g><g transform="translate(-422,-46) scale(1,1)"><rect fill="#ffffff" stroke="none" x="512" y="360" width="288" height="87"/></g><g transform="translate(-422,-46) scale(1,1)"><path fill="none" stroke="#000000" d="M 512 360 L 800 360 L 800 447 L 512 447 L 512 360 Z Z" stroke-miterlimit="10"/></g><g transform="translate(-422,-46) scale(1,1)"><path fill="none" stroke="#000000" d="M 512 385 L 800 385" stroke-miterlimit="10"/></g><g transform="translate(-422,-46) scale(1,1)"><path fill="none" stroke="#000000" d="M 512 395 L 800 395" stroke-miterlimit="10"/></g><g transform="translate(-422,-46) scale(1,1)"><g><path fill="none" stroke="none"/><text fill="#000000" stroke="none" font-family="Arial" font-size="13px" font-style="normal" font-weight="bold" text-decoration="none" x="620" y="379.5">MainActivity</text></g></g><g transform="translate(-422,-46) scale(1,1)"><g><path fill="none" stroke="none"/><text fill="#000000" stroke="none" font-family="Arial" font-size="13px" font-style="normal" font-weight="normal" text-decoration="none" x="517" y="412.5">#onCreate(savedInstanceState: Bundle): void</text></g></g><g transform="translate(-422,-46) scale(1,1)"><g><path fill="none" stroke="none"/><text fill="#000000" stroke="none" font-family="Arial" font-size="13px" font-style="normal" font-weight="normal" text-decoration="none" x="517" y="427.5">+onReactionTimerButtonClick(view : View): void</text></g></g><g transform="translate(-422,-46) scale(1,1)"><g><path fill="none" stroke="none"/><text fill="#000000" stroke="none" font-family="Arial" font-size="13px" font-style="normal" font-weight="normal" text-decoration="none" x="517" y="442.5">+onGameshowButtonClick(view: View): void</text></g></g><g transform="translate(-422,-46) scale(1,1)"><rect fill="#C0C0C0" stroke="none" x="1135" y="1151" width="222" height="205" opacity="0.2"/></g><g transform="translate(-422,-46) scale(1,1)"><rect fill="#ffffff" stroke="none" x="1128" y="1144" width="222" height="205"/></g><g transform="translate(-422,-46) scale(1,1)"><path fill="none" stroke="#000000" d="M 1128 1144 L 1350 1144 L 1350 1349 L 1128 1349 L 1128 1144 Z Z" stroke-miterlimit="10"/></g><g transform="translate(-422,-46) scale(1,1)"><path fill="none" stroke="#000000" d="M 1128 1169 L 1350 1169" stroke-miterlimit="10"/></g><g transform="translate(-422,-46) scale(1,1)"><path fill="none" stroke="#000000" d="M 1128 1207 L 1350 1207" stroke-miterlimit="10"/></g><g transform="translate(-422,-46) scale(1,1)"><g><path fill="none" stroke="none"/><text fill="#000000" stroke="none" font-family="Arial" font-size="13px" font-style="normal" font-weight="bold" text-decoration="none" x="1189.5" y="1163.5">ReactionStatistic</text></g></g><g transform="translate(-422,-46) scale(1,1)"><g><path fill="none" stroke="none"/><text fill="#000000" stroke="none" font-family="Arial" font-size="13px" font-style="normal" font-weight="normal" text-decoration="none" x="1133" y="1186.5">-startTime: long</text></g></g><g transform="translate(-422,-46) scale(1,1)"><g><path fill="none" stroke="none"/><text fill="#000000" stroke="none" font-family="Arial" font-size="13px" font-style="normal" font-weight="normal" text-decoration="none" x="1133" y="1201.5">-endTime: long</text></g></g><g transform="translate(-422,-46) scale(1,1)"><g><path fill="none" stroke="none"/><text fill="#000000" stroke="none" font-family="Arial" font-size="13px" font-style="normal" font-weight="normal" text-decoration="none" x="1133" y="1224.5">+ReactionStatistic()</text></g></g><g transform="translate(-422,-46) scale(1,1)"><g><path fill="none" stroke="none"/><text fill="#000000" stroke="none" font-family="Arial" font-size="13px" font-style="normal" font-weight="normal" text-decoration="none" x="1133" y="1239.5">+getStartTime(): Long</text></g></g><g transform="translate(-422,-46) scale(1,1)"><g><path fill="none" stroke="none"/><text fill="#000000" stroke="none" font-family="Arial" font-size="13px" font-style="normal" font-weight="normal" text-decoration="none" x="1133" y="1254.5">+setStartTime(startTime: Date): void</text></g></g><g transform="translate(-422,-46) scale(1,1)"><g><path fill="none" stroke="none"/><text fill="#000000" stroke="none" font-family="Arial" font-size="13px" font-style="normal" font-weight="normal" text-decoration="none" x="1133" y="1269.5">+setEndTime(endTime: Date): void</text></g></g><g transform="translate(-422,-46) scale(1,1)"><g><path fill="none" stroke="none"/><text fill="#000000" stroke="none" font-family="Arial" font-size="13px" font-style="normal" font-weight="normal" text-decoration="none" x="1133" y="1284.5">+getReactionTime(): Long</text></g></g><g transform="translate(-422,-46) scale(1,1)"><g><path fill="none" stroke="none"/><text fill="#000000" stroke="none" font-family="Arial" font-size="13px" font-style="normal" font-weight="normal" text-decoration="none" x="1133" y="1299.5">+start(): void</text></g></g><g transform="translate(-422,-46) scale(1,1)"><g><path fill="none" stroke="none"/><text fill="#000000" stroke="none" font-family="Arial" font-size="13px" font-style="normal" font-weight="normal" text-decoration="none" x="1133" y="1314.5">+stop(): void</text></g></g><g transform="translate(-422,-46) scale(1,1)"><g><path fill="none" stroke="none"/><text fill="#000000" stroke="none" font-family="Arial" font-size="13px" font-style="normal" font-weight="normal" text-decoration="none" x="1133" y="1329.5">+toString(): String</text></g></g><g transform="translate(-422,-46) scale(1,1)"><path fill="#C0C0C0" stroke="none" d="M 1373.5 1066.5 C 1373.5 1060.1487248 1378.6487248 1055 1385 1055 C 1391.3512752 1055 1396.5 1060.1487248 1396.5 1066.5 C 1396.5 1072.8512752 1391.3512752 1078 1385 1078 C 1378.6487248 1078 1373.5 1072.8512752 1373.5 1066.5 Z" opacity="0.2"/></g><g transform="translate(-422,-46) scale(1,1)"><path fill="#ffffff" stroke="none" d="M 1366.5 1059.5 C 1366.5 1053.1487248 1371.6487248 1048 1378 1048 C 1384.3512752 1048 1389.5 1053.1487248 1389.5 1059.5 C 1389.5 1065.8512752 1384.3512752 1071 1378 1071 C 1371.6487248 1071 1366.5 1065.8512752 1366.5 1059.5 Z"/></g><g transform="translate(-422,-46) scale(1,1)"><path fill="none" stroke="#000000" d="M 1366.5 1059.5 C 1366.5 1053.1487248 1371.6487248 1048 1378 1048 C 1384.3512752 1048 1389.5 1053.1487248 1389.5 1059.5 C 1389.5 1065.8512752 1384.3512752 1071 1378 1071 C 1371.6487248 1071 1366.5 1065.8512752 1366.5 1059.5 Z" stroke-miterlimit="10"/></g><g transform="translate(-422,-46) scale(1,1)"><g><path fill="none" stroke="none"/><text fill="#000000" stroke="none" font-family="Arial" font-size="13px" font-style="normal" font-weight="bold" text-decoration="none" x="1343.5" y="1090.5">Comparable</text></g></g><g transform="translate(-422,-46) scale(1,1)"><path fill="none" stroke="#000000" d="M 1321 1143 L 1358 1097" stroke-miterlimit="10"/></g><g transform="translate(-422,-46) scale(1,1)"><path fill="#FFFFFF" stroke="none" d="M 1351.8211370666825 1118.1144891686083 L 1358 1097 L 1338.7006856474163 1107.561082592242"/></g><g transform="translate(-422,-46) scale(1,1)"><path fill="none" stroke="#000000" d="M 1351.8211370666825 1118.1144891686083 L 1358 1097 L 1338.7006856474163 1107.561082592242 L 1351.8211370666825 1118.1144891686083" stroke-miterlimit="10"/></g><g transform="translate(-422,-46) scale(1,1)"><g><path fill="none" stroke="none"/><text fill="#000000" stroke="none" font-family="Arial" font-size="13px" font-style="normal" font-weight="normal" text-decoration="none" x="1340" y="1131">+implements Comparable&lt;ReactionStatisitc&gt;</text></g></g><g transform="translate(-422,-46) scale(1,1)"><rect fill="#C0C0C0" stroke="none" x="1007" y="751" width="450" height="280" opacity="0.2"/></g><g transform="translate(-422,-46) scale(1,1)"><rect fill="#ffffff" stroke="none" x="1000" y="744" width="450" height="280"/></g><g transform="translate(-422,-46) scale(1,1)"><path fill="none" stroke="#000000" d="M 1000 744 L 1450 744 L 1450 1024 L 1000 1024 L 1000 744 Z Z" stroke-miterlimit="10"/></g><g transform="translate(-422,-46) scale(1,1)"><path fill="none" stroke="#000000" d="M 1000 769 L 1450 769" stroke-miterlimit="10"/></g><g transform="translate(-422,-46) scale(1,1)"><path fill="none" stroke="#000000" d="M 1000 852 L 1450 852" stroke-miterlimit="10"/></g><g transform="translate(-422,-46) scale(1,1)"><g><path fill="none" stroke="none"/><text fill="#000000" stroke="none" font-family="Arial" font-size="13px" font-style="normal" font-weight="bold" text-decoration="none" x="1150.5" y="763.5">ReactionStatisticManager</text></g></g><g transform="translate(-422,-46) scale(1,1)"><g><path fill="none" stroke="none"/><text fill="#000000" stroke="none" font-family="Arial" font-size="13px" font-style="normal" font-weight="normal" text-decoration="none" x="1005" y="786.5">-key: String {readOnly}</text><path fill="none" stroke="#000000" d="M 1005 786.5 L 1136 786.5" stroke-miterlimit="10"/></g></g><g transform="translate(-422,-46) scale(1,1)"><g><path fill="none" stroke="none"/><text fill="#000000" stroke="none" font-family="Arial" font-size="13px" font-style="normal" font-weight="normal" text-decoration="none" x="1005" y="801.5">-preferenceFile: String {readOnly}</text><path fill="none" stroke="#000000" d="M 1005 801.5 L 1197 801.5" stroke-miterlimit="10"/></g></g><g transform="translate(-422,-46) scale(1,1)"><g><path fill="none" stroke="none"/><text fill="#000000" stroke="none" font-family="Arial" font-size="13px" font-style="normal" font-weight="normal" text-decoration="none" x="1005" y="816.5">-reactionStatisticManager: ReactionStatisticManager</text><path fill="none" stroke="#000000" d="M 1005 816.5 L 1310 816.5" stroke-miterlimit="10"/></g></g><g transform="translate(-422,-46) scale(1,1)"><g><path fill="none" stroke="none"/><text fill="#000000" stroke="none" font-family="Arial" font-size="13px" font-style="normal" font-weight="normal" text-decoration="none" x="1005" y="831.5">-context: Context</text></g></g><g transform="translate(-422,-46) scale(1,1)"><g><path fill="none" stroke="none"/><text fill="#000000" stroke="none" font-family="Arial" font-size="13px" font-style="normal" font-weight="normal" text-decoration="none" x="1005" y="846.5">-statistics: ArrayList&lt;ReactionStatistic&gt;</text></g></g><g transform="translate(-422,-46) scale(1,1)"><g><path fill="none" stroke="none"/><text fill="#000000" stroke="none" font-family="Arial" font-size="13px" font-style="normal" font-weight="normal" text-decoration="none" x="1005" y="869.5">-ReactionStatisticManager(context: Context)</text></g></g><g transform="translate(-422,-46) scale(1,1)"><g><path fill="none" stroke="none"/><text fill="#000000" stroke="none" font-family="Arial" font-size="13px" font-style="normal" font-weight="normal" text-decoration="none" x="1005" y="884.5">+createManager(): void</text><path fill="none" stroke="#000000" d="M 1005 884.5 L 1139 884.5" stroke-miterlimit="10"/></g></g><g transform="translate(-422,-46) scale(1,1)"><g><path fill="none" stroke="none"/><text fill="#000000" stroke="none" font-family="Arial" font-size="13px" font-style="normal" font-weight="normal" text-decoration="none" x="1005" y="899.5">+getManager(): ReactionStatisticManager</text><path fill="none" stroke="#000000" d="M 1005 899.5 L 1246 899.5" stroke-miterlimit="10"/></g></g><g transform="translate(-422,-46) scale(1,1)"><g><path fill="none" stroke="none"/><text fill="#000000" stroke="none" font-family="Arial" font-size="13px" font-style="normal" font-weight="normal" text-decoration="none" x="1005" y="914.5">+getNumberOfStatistics(): Integer</text></g></g><g transform="translate(-422,-46) scale(1,1)"><g><path fill="none" stroke="none"/><text fill="#000000" stroke="none" font-family="Arial" font-size="13px" font-style="normal" font-weight="normal" text-decoration="none" x="1005" y="929.5">-getMedian(lastN: Integer): ReactionStatistic</text></g></g><g transform="translate(-422,-46) scale(1,1)"><g><path fill="none" stroke="none"/><text fill="#000000" stroke="none" font-family="Arial" font-size="13px" font-style="normal" font-weight="normal" text-decoration="none" x="1005" y="944.5">-getAverage(lastN: Integer): Long</text></g></g><g transform="translate(-422,-46) scale(1,1)"><g><path fill="none" stroke="none"/><text fill="#000000" stroke="none" font-family="Arial" font-size="13px" font-style="normal" font-weight="normal" text-decoration="none" x="1005" y="959.5">-getMinimum(lastN: Integer): ReactionStatistic</text></g></g><g transform="translate(-422,-46) scale(1,1)"><g><path fill="none" stroke="none"/><text fill="#000000" stroke="none" font-family="Arial" font-size="13px" font-style="normal" font-weight="normal" text-decoration="none" x="1005" y="974.5">-getMaximum(lastN: Integer): ReactionStatistic</text></g></g><g transform="translate(-422,-46) scale(1,1)"><g><path fill="none" stroke="none"/><text fill="#000000" stroke="none" font-family="Arial" font-size="13px" font-style="normal" font-weight="normal" text-decoration="none" x="1005" y="989.5">-sortByReactionTime(list: ArrayList&lt;ReactionStatistic&gt;): void</text></g></g><g transform="translate(-422,-46) scale(1,1)"><g><path fill="none" stroke="none"/><text fill="#000000" stroke="none" font-family="Arial" font-size="13px" font-style="normal" font-weight="normal" text-decoration="none" x="1005" y="1004.5">-sortByStartTime(): void</text></g></g><g transform="translate(-422,-46) scale(1,1)"><g><path fill="none" stroke="none"/><text fill="#000000" stroke="none" font-family="Arial" font-size="13px" font-style="normal" font-weight="normal" text-decoration="none" x="1005" y="1019.5">-getLastNReactionStatsSorted(lastN: Integer): ArrayList&lt;ReactionStatistic&gt;</text></g></g><g transform="translate(-422,-46) scale(1,1)"><rect fill="#C0C0C0" stroke="none" x="575" y="751" width="382" height="160" opacity="0.2"/></g><g transform="translate(-422,-46) scale(1,1)"><rect fill="#ffffff" stroke="none" x="568" y="744" width="382" height="160"/></g><g transform="translate(-422,-46) scale(1,1)"><path fill="none" stroke="#000000" d="M 568 744 L 950 744 L 950 904 L 568 904 L 568 744 Z Z" stroke-miterlimit="10"/></g><g transform="translate(-422,-46) scale(1,1)"><path fill="none" stroke="#000000" d="M 568 769 L 950 769" stroke-miterlimit="10"/></g><g transform="translate(-422,-46) scale(1,1)"><path fill="none" stroke="#000000" d="M 568 852 L 950 852" stroke-miterlimit="10"/></g><g transform="translate(-422,-46) scale(1,1)"><g><path fill="none" stroke="none"/><text fill="#000000" stroke="none" font-family="Arial" font-size="13px" font-style="normal" font-weight="bold" text-decoration="none" x="677.5" y="763.5">GameshowStatisticManager</text></g></g><g transform="translate(-422,-46) scale(1,1)"><g><path fill="none" stroke="none"/><text fill="#000000" stroke="none" font-family="Arial" font-size="13px" font-style="normal" font-weight="normal" text-decoration="none" x="573" y="786.5">+key: String {readOnly}</text><path fill="none" stroke="#000000" d="M 573 786.5 L 708 786.5" stroke-miterlimit="10"/></g></g><g transform="translate(-422,-46) scale(1,1)"><g><path fill="none" stroke="none"/><text fill="#000000" stroke="none" font-family="Arial" font-size="13px" font-style="normal" font-weight="normal" text-decoration="none" x="573" y="801.5">+preferenceFile: String {readOnly}</text><path fill="none" stroke="#000000" d="M 573 801.5 L 769 801.5" stroke-miterlimit="10"/></g></g><g transform="translate(-422,-46) scale(1,1)"><g><path fill="none" stroke="none"/><text fill="#000000" stroke="none" font-family="Arial" font-size="13px" font-style="normal" font-weight="normal" text-decoration="none" x="573" y="816.5">+GameshowStatisticManager: GameshowStatisticManager</text><path fill="none" stroke="#000000" d="M 573 816.5 L 915 816.5" stroke-miterlimit="10"/></g></g><g transform="translate(-422,-46) scale(1,1)"><g><path fill="none" stroke="none"/><text fill="#000000" stroke="none" font-family="Arial" font-size="13px" font-style="normal" font-weight="normal" text-decoration="none" x="573" y="831.5">+context: Context</text></g></g><g transform="translate(-422,-46) scale(1,1)"><g><path fill="none" stroke="none"/><text fill="#000000" stroke="none" font-family="Arial" font-size="13px" font-style="normal" font-weight="normal" text-decoration="none" x="573" y="846.5">+statistics: ArrayList&lt;GameshowStatistic&gt;</text></g></g><g transform="translate(-422,-46) scale(1,1)"><g><path fill="none" stroke="none"/><text fill="#000000" stroke="none" font-family="Arial" font-size="13px" font-style="normal" font-weight="normal" text-decoration="none" x="573" y="869.5">-GameshowStatisticManager(Context: context)</text></g></g><g transform="translate(-422,-46) scale(1,1)"><g><path fill="none" stroke="none"/><text fill="#000000" stroke="none" font-family="Arial" font-size="13px" font-style="normal" font-weight="normal" text-decoration="none" x="573" y="884.5">+createManager(): void</text><path fill="none" stroke="#000000" d="M 573 884.5 L 707 884.5" stroke-miterlimit="10"/></g></g><g transform="translate(-422,-46) scale(1,1)"><g><path fill="none" stroke="none"/><text fill="#000000" stroke="none" font-family="Arial" font-size="13px" font-style="normal" font-weight="normal" text-decoration="none" x="573" y="899.5">+getManager(): GameshowStatisticManager</text><path fill="none" stroke="#000000" d="M 573 899.5 L 828 899.5" stroke-miterlimit="10"/></g></g><g transform="translate(-422,-46) scale(1,1)"><path fill="none" stroke="#000000" d="M 844 743 L 922 669" stroke-miterlimit="10"/></g><g transform="translate(-422,-46) scale(1,1)"><path fill="#FFFFFF" stroke="none" d="M 913.0491856399352 689.0968386143606 L 922 669 L 901.4602076042302 676.8814293334824"/></g><g transform="translate(-422,-46) scale(1,1)"><path fill="none" stroke="#000000" d="M 913.0491856399352 689.0968386143606 L 922 669 L 901.4602076042302 676.8814293334824 L 913.0491856399352 689.0968386143606" stroke-miterlimit="10"/></g><g transform="translate(-422,-46) scale(1,1)"><g><path fill="none" stroke="none"/><text fill="#000000" stroke="none" font-family="Arial" font-size="13px" font-style="normal" font-weight="normal" text-decoration="none" x="564" y="704">+implements StatisticsManager&lt;GameshowStatistic&gt;</text></g></g><g transform="translate(-422,-46) scale(1,1)"><path fill="none" stroke="#000000" d="M 1116 743 L 1059 669" stroke-miterlimit="10"/></g><g transform="translate(-422,-46) scale(1,1)"><path fill="#FFFFFF" stroke="none" d="M 1078.0728751513773 679.9647359047071 L 1059 669 L 1064.7333202441253 690.2397984684013"/></g><g transform="translate(-422,-46) scale(1,1)"><path fill="none" stroke="#000000" d="M 1078.0728751513773 679.9647359047071 L 1059 669 L 1064.7333202441253 690.2397984684013 L 1078.0728751513773 679.9647359047071" stroke-miterlimit="10"/></g><g transform="translate(-422,-46) scale(1,1)"><g><path fill="none" stroke="none"/><text fill="#000000" stroke="none" font-family="Arial" font-size="13px" font-style="normal" font-weight="normal" text-decoration="none" x="1095" y="700">+implements StatisticsManager&lt;ReactionStatistic&gt;</text></g></g><g transform="translate(-422,-46) scale(1,1)"><rect fill="#C0C0C0" stroke="none" x="1247" y="543" width="292" height="115" opacity="0.2"/></g><g transform="translate(-422,-46) scale(1,1)"><rect fill="#ffffff" stroke="none" x="1240" y="536" width="292" height="115"/></g><g transform="translate(-422,-46) scale(1,1)"><path fill="none" stroke="#000000" d="M 1240 536 L 1532 536 L 1532 651 L 1240 651 L 1240 536 Z Z" stroke-miterlimit="10"/></g><g transform="translate(-422,-46) scale(1,1)"><path fill="none" stroke="#000000" d="M 1240 561 L 1532 561" stroke-miterlimit="10"/></g><g transform="translate(-422,-46) scale(1,1)"><path fill="none" stroke="#000000" d="M 1240 584 L 1532 584" stroke-miterlimit="10"/></g><g transform="translate(-422,-46) scale(1,1)"><g><path fill="none" stroke="none"/><text fill="#000000" stroke="none" font-family="Arial" font-size="13px" font-style="normal" font-weight="bold" text-decoration="none" x="1322" y="555.5">ReactionTimerActivity</text></g></g><g transform="translate(-422,-46) scale(1,1)"><g><path fill="none" stroke="none"/><text fill="#000000" stroke="none" font-family="Arial" font-size="13px" font-style="normal" font-weight="normal" text-decoration="none" x="1245" y="578.5">-handler: Handler {readOnly}</text></g></g><g transform="translate(-422,-46) scale(1,1)"><g><path fill="none" stroke="none"/><text fill="#000000" stroke="none" font-family="Arial" font-size="13px" font-style="normal" font-weight="normal" text-decoration="none" x="1245" y="601.5">#onCreate(savedInstanceState: Bundle): void</text></g></g><g transform="translate(-422,-46) scale(1,1)"><g><path fill="none" stroke="none"/><text fill="#000000" stroke="none" font-family="Arial" font-size="13px" font-style="normal" font-weight="normal" text-decoration="none" x="1245" y="616.5">+onCreateOptionsMenu(menu: Menu): boolean</text></g></g><g transform="translate(-422,-46) scale(1,1)"><g><path fill="none" stroke="none"/><text fill="#000000" stroke="none" font-family="Arial" font-size="13px" font-style="normal" font-weight="normal" text-decoration="none" x="1245" y="631.5">+onStartCountdownButtonClick(view: View): void</text></g></g><g transform="translate(-422,-46) scale(1,1)"><g><path fill="none" stroke="none"/><text fill="#000000" stroke="none" font-family="Arial" font-size="13px" font-style="normal" font-weight="normal" text-decoration="none" x="1245" y="646.5">+onStatisticsMenuClick(menu: MenuItem): void</text></g></g><g transform="translate(-422,-46) scale(1,1)"><rect fill="#C0C0C0" stroke="none" x="871" y="223" width="273" height="250" opacity="0.2"/></g><g transform="translate(-422,-46) scale(1,1)"><rect fill="#ffffff" stroke="none" x="864" y="216" width="273" height="250"/></g><g transform="translate(-422,-46) scale(1,1)"><path fill="none" stroke="#000000" d="M 864 216 L 1137 216 L 1137 466 L 864 466 L 864 216 Z Z" stroke-miterlimit="10"/></g><g transform="translate(-422,-46) scale(1,1)"><path fill="none" stroke="#000000" d="M 864 241 L 1137 241" stroke-miterlimit="10"/></g><g transform="translate(-422,-46) scale(1,1)"><path fill="none" stroke="#000000" d="M 864 399 L 1137 399" stroke-miterlimit="10"/></g><g transform="translate(-422,-46) scale(1,1)"><g><path fill="none" stroke="none"/><text fill="#000000" stroke="none" font-family="Arial" font-size="13px" font-style="normal" font-weight="bold" text-decoration="none" x="954.5" y="235.5">StatisticActivity</text></g></g><g transform="translate(-422,-46) scale(1,1)"><g><path fill="none" stroke="none"/><text fill="#000000" stroke="none" font-family="Arial" font-size="13px" font-style="normal" font-weight="normal" text-decoration="none" x="869" y="258.5">-type: String</text></g></g><g transform="translate(-422,-46) scale(1,1)"><g><path fill="none" stroke="none"/><text fill="#000000" stroke="none" font-family="Arial" font-size="13px" font-style="normal" font-weight="normal" text-decoration="none" x="869" y="273.5">-spinnerNumber: Integer</text></g></g><g transform="translate(-422,-46) scale(1,1)"><g><path fill="none" stroke="none"/><text fill="#000000" stroke="none" font-family="Arial" font-size="13px" font-style="normal" font-weight="normal" text-decoration="none" x="869" y="288.5">-statisticsManager: StatisticsManager</text></g></g><g transform="translate(-422,-46) scale(1,1)"><g><path fill="none" stroke="none"/><text fill="#000000" stroke="none" font-family="Arial" font-size="13px" font-style="normal" font-weight="normal" text-decoration="none" x="869" y="303.5">-numberOptions: String[]</text></g></g><g transform="translate(-422,-46) scale(1,1)"><g><path fill="none" stroke="none"/><text fill="#000000" stroke="none" font-family="Arial" font-size="13px" font-style="normal" font-weight="normal" text-decoration="none" x="869" y="318.5">-numberSpinner: Spinner</text></g></g><g transform="translate(-422,-46) scale(1,1)"><g><path fill="none" stroke="none"/><text fill="#000000" stroke="none" font-family="Arial" font-size="13px" font-style="normal" font-weight="normal" text-decoration="none" x="869" y="333.5">-statsListView: ListView</text></g></g><g transform="translate(-422,-46) scale(1,1)"><g><path fill="none" stroke="none"/><text fill="#000000" stroke="none" font-family="Arial" font-size="13px" font-style="normal" font-weight="normal" text-decoration="none" x="869" y="348.5">-headerTextView: TextView</text></g></g><g transform="translate(-422,-46) scale(1,1)"><g><path fill="none" stroke="none"/><text fill="#000000" stroke="none" font-family="Arial" font-size="13px" font-style="normal" font-weight="normal" text-decoration="none" x="869" y="363.5">-numberAdapter: ArrayAdapter&lt;String&gt;</text></g></g><g transform="translate(-422,-46) scale(1,1)"><g><path fill="none" stroke="none"/><text fill="#000000" stroke="none" font-family="Arial" font-size="13px" font-style="normal" font-weight="normal" text-decoration="none" x="869" y="378.5">+statsAdapter: ArrayAdapter&lt;String&gt;</text></g></g><g transform="translate(-422,-46) scale(1,1)"><g><path fill="none" stroke="none"/><text fill="#000000" stroke="none" font-family="Arial" font-size="13px" font-style="normal" font-weight="normal" text-decoration="none" x="869" y="393.5">-stats: ArrayList&lt;String&gt;</text></g></g><g transform="translate(-422,-46) scale(1,1)"><g><path fill="none" stroke="none"/><text fill="#000000" stroke="none" font-family="Arial" font-size="13px" font-style="normal" font-weight="normal" text-decoration="none" x="869" y="416.5">#onCreate(savedInstanceState: Bundle): void</text></g></g><g transform="translate(-422,-46) scale(1,1)"><g><path fill="none" stroke="none"/><text fill="#000000" stroke="none" font-family="Arial" font-size="13px" font-style="normal" font-weight="normal" text-decoration="none" x="869" y="431.5">+updateListView(): void</text></g></g><g transform="translate(-422,-46) scale(1,1)"><g><path fill="none" stroke="none"/><text fill="#000000" stroke="none" font-family="Arial" font-size="13px" font-style="normal" font-weight="normal" text-decoration="none" x="869" y="446.5">+onClickClearStatistics(view: View): void</text></g></g><g transform="translate(-422,-46) scale(1,1)"><g><path fill="none" stroke="none"/><text fill="#000000" stroke="none" font-family="Arial" font-size="13px" font-style="normal" font-weight="normal" text-decoration="none" x="869" y="461.5">+onEmailStatisticsClick(view: View): void</text></g></g><g transform="translate(-422,-46) scale(1,1)"><path fill="none" stroke="#000000" d="M 1001 519 L 1000 467" stroke-miterlimit="10"/></g><g transform="translate(-422,-46) scale(1,1)"><path fill="#FFFFFF" stroke="none" d="M 1004.4041395113403 477.07985888614775 L 1000 467 L 995.9866603419617 477.2417334855589 L 1000.4229987130896 488.99593308065664"/></g><g transform="translate(-422,-46) scale(1,1)"><path fill="none" stroke="#000000" d="M 1004.4041395113403 477.07985888614775 L 1000 467 L 995.9866603419617 477.2417334855589 L 1000.4229987130896 488.99593308065664 L 1004.4041395113403 477.07985888614775" stroke-miterlimit="10"/></g><g transform="translate(-422,-46) scale(1,1)"><g><path fill="none" stroke="none"/><text fill="#000000" stroke="none" font-family="Arial" font-size="13px" font-style="normal" font-weight="normal" text-decoration="none" x="1010" y="504">1</text></g></g><g transform="translate(-422,-46) scale(1,1)"><path fill="none" stroke="#000000" d="M 760 1008 L 760 904" stroke-miterlimit="10"/></g><g transform="translate(-422,-46) scale(1,1)"><path fill="#000000" stroke="none" d="M 764.209517756016 914.1626748576241 L 760 904 L 755.790482243984 914.1626748576241 L 760 926"/></g><g transform="translate(-422,-46) scale(1,1)"><path fill="none" stroke="#000000" d="M 764.209517756016 914.1626748576241 L 760 904 L 755.790482243984 914.1626748576241 L 760 926 L 764.209517756016 914.1626748576241" stroke-miterlimit="10"/></g><g transform="translate(-422,-46) scale(1,1)"><g><path fill="none" stroke="none"/><text fill="#000000" stroke="none" font-family="Arial" font-size="13px" font-style="normal" font-weight="normal" text-decoration="none" x="762" y="993">0..*</text></g></g><g transform="translate(-422,-46) scale(1,1)"><path fill="none" stroke="#000000" d="M 1230 1144 L 1230 1024" stroke-miterlimit="10"/></g><g transform="translate(-422,-46) scale(1,1)"><path fill="#000000" stroke="none" d="M 1234.2095177560159 1034.162674857624 L 1230 1024 L 1225.7904822439841 1034.162674857624 L 1230 1046"/></g><g transform="translate(-422,-46) scale(1,1)"><path fill="none" stroke="#000000" d="M 1234.2095177560159 1034.162674857624 L 1230 1024 L 1225.7904822439841 1034.162674857624 L 1230 1046 L 1234.2095177560159 1034.162674857624" stroke-miterlimit="10"/></g><g transform="translate(-422,-46) scale(1,1)"><g><path fill="none" stroke="none"/><text fill="#000000" stroke="none" font-family="Arial" font-size="13px" font-style="normal" font-weight="normal" text-decoration="none" x="1232" y="1129">0..*</text></g></g><g transform="translate(-422,-46) scale(1,1)"><path fill="none" stroke="#000000" d="M 1450 784 L 1488 784 L 1488 651" stroke-miterlimit="10"/></g><g transform="translate(-422,-46) scale(1,1)"><g><path fill="none" stroke="none"/><text fill="#000000" stroke="none" font-family="Arial" font-size="13px" font-style="normal" font-weight="normal" text-decoration="none" x="1468" y="803">1</text></g></g><g transform="translate(-422,-46) scale(1,1)"><g><path fill="none" stroke="none"/><text fill="#000000" stroke="none" font-family="Arial" font-size="13px" font-style="normal" font-weight="normal" text-decoration="none" x="1490" y="679">0..*</text></g></g><g transform="translate(-422,-46) scale(1,1)"><path fill="none" stroke="#000000" d="M 568 784 L 464 784 L 464 651" stroke-miterlimit="10"/></g><g transform="translate(-422,-46) scale(1,1)"><g><path fill="none" stroke="none"/><text fill="#000000" stroke="none" font-family="Arial" font-size="13px" font-style="normal" font-weight="normal" text-decoration="none" x="543" y="778">1</text></g></g><g transform="translate(-422,-46) scale(1,1)"><g><path fill="none" stroke="none"/><text fill="#000000" stroke="none" font-family="Arial" font-size="13px" font-style="normal" font-weight="normal" text-decoration="none" x="466" y="679">0..*</text></g></g><g transform="translate(-422,-46) scale(1,1)"><rect fill="#C0C0C0" stroke="none" x="943" y="63" width="128" height="57" opacity="0.2"/></g><g transform="translate(-422,-46) scale(1,1)"><rect fill="#ffffff" stroke="none" x="936" y="56" width="128" height="57"/></g><g transform="translate(-422,-46) scale(1,1)"><path fill="none" stroke="#000000" d="M 936 56 L 1064 56 L 1064 113 L 936 113 L 936 56 Z Z" stroke-miterlimit="10"/></g><g transform="translate(-422,-46) scale(1,1)"><path fill="none" stroke="#000000" d="M 936 94 L 1064 94" stroke-miterlimit="10"/></g><g transform="translate(-422,-46) scale(1,1)"><path fill="none" stroke="#000000" d="M 936 104 L 1064 104" stroke-miterlimit="10"/></g><g transform="translate(-422,-46) scale(1,1)"><g><path fill="none" stroke="none"/><text fill="#000000" stroke="none" font-family="Arial" font-size="13px" font-style="normal" font-weight="normal" text-decoration="none" x="961.5" y="73.5">«AndroidApi»</text></g></g><g transform="translate(-422,-46) scale(1,1)"><g><path fill="none" stroke="none"/><text fill="#000000" stroke="none" font-family="Arial" font-size="13px" font-style="normal" font-weight="bold" text-decoration="none" x="944" y="88.5">AppCompatActivity</text></g></g><g transform="translate(-422,-46) scale(1,1)"><path fill="none" stroke="#000000" d="M 760 360 L 760 168 L 968 168 L 968 113" stroke-miterlimit="10"/></g><g transform="translate(-422,-46) scale(1,1)"><path fill="#FFFFFF" stroke="none" d="M 976.419035512032 133.3253497152483 L 968 113 L 959.580964487968 133.3253497152483"/></g><g transform="translate(-422,-46) scale(1,1)"><path fill="none" stroke="#000000" d="M 976.419035512032 133.3253497152483 L 968 113 L 959.580964487968 133.3253497152483 L 976.419035512032 133.3253497152483" stroke-miterlimit="10"/></g><g transform="translate(-422,-46) scale(1,1)"><path fill="none" stroke="#000000" d="M 1000 215 L 1000 114" stroke-miterlimit="10"/></g><g transform="translate(-422,-46) scale(1,1)"><path fill="#FFFFFF" stroke="none" d="M 1008.419035512032 134.3253497152483 L 1000 114 L 991.580964487968 134.3253497152483"/></g><g transform="translate(-422,-46) scale(1,1)"><path fill="none" stroke="#000000" d="M 1008.419035512032 134.3253497152483 L 1000 114 L 991.580964487968 134.3253497152483 L 1008.419035512032 134.3253497152483" stroke-miterlimit="10"/></g><g transform="translate(-422,-46) scale(1,1)"><path fill="none" stroke="#000000" d="M 1288 536 L 1288 160 L 1032 160 L 1032 113" stroke-miterlimit="10"/></g><g transform="translate(-422,-46) scale(1,1)"><path fill="#FFFFFF" stroke="none" d="M 1040.419035512032 133.3253497152483 L 1032 113 L 1023.580964487968 133.3253497152483"/></g><g transform="translate(-422,-46) scale(1,1)"><path fill="none" stroke="#000000" d="M 1040.419035512032 133.3253497152483 L 1032 113 L 1023.580964487968 133.3253497152483 L 1040.419035512032 133.3253497152483" stroke-miterlimit="10"/></g></g></svg>